<?xml version="1.0" encoding="UTF-8"?>
<svg width="512" height="512" viewBox="0 0 512 512" fill="none" xmlns="http://www.w3.org/2000/svg">
  <!-- Background -->
  <circle cx="256" cy="256" r="256" fill="#F9F4EC"/>
  
  <!-- Main Circle -->
  <circle cx="256" cy="256" r="150" fill="#F7EFE5"/>
  
  <!-- Journal Outline -->
  <rect x="156" y="156" width="200" height="240" rx="8" fill="#C06B45"/>
  
  <!-- Journal Cover -->
  <rect x="166" y="166" width="180" height="220" rx="4" fill="#F7EFE5"/>
  
  <!-- Journal Binding/Spine -->
  <rect x="251" y="156" width="10" height="240" fill="#9DB2BF"/>
  
  <!-- Journal Left Page Lines -->
  <rect x="186" y="196" width="50" height="2" rx="1" fill="#9DB2BF" fill-opacity="0.4"/>
  <rect x="186" y="216" width="50" height="2" rx="1" fill="#9DB2BF" fill-opacity="0.4"/>
  <rect x="186" y="236" width="50" height="2" rx="1" fill="#9DB2BF" fill-opacity="0.4"/>
  <rect x="186" y="256" width="50" height="2" rx="1" fill="#9DB2BF" fill-opacity="0.4"/>
  <rect x="186" y="276" width="50" height="2" rx="1" fill="#9DB2BF" fill-opacity="0.4"/>
  <rect x="186" y="296" width="50" height="2" rx="1" fill="#9DB2BF" fill-opacity="0.4"/>
  <rect x="186" y="316" width="50" height="2" rx="1" fill="#9DB2BF" fill-opacity="0.4"/>
  <rect x="186" y="336" width="30" height="2" rx="1" fill="#9DB2BF" fill-opacity="0.4"/>
  
  <!-- Journal Right Page Content - Sketches/Doodles -->
  <circle cx="296" cy="206" r="15" stroke="#9DB2BF" stroke-opacity="0.6" stroke-width="2"/>
  <path d="M286 246L306 266M306 246L286 266" stroke="#9DB2BF" stroke-opacity="0.6" stroke-width="2"/>
  <rect x="281" y="286" width="30" height="20" rx="2" stroke="#9DB2BF" stroke-opacity="0.6" stroke-width="2"/>
  <path d="M281 326H311M296 316V336" stroke="#9DB2BF" stroke-opacity="0.6" stroke-width="2"/>
  
  <!-- Journal Bookmark -->
  <rect x="306" y="166" width="10" height="60" rx="5" fill="#E88C59"/>
  
  <!-- Pen -->
  <rect x="216" y="376" width="80" height="10" rx="5" fill="#9DB2BF"/>
  <path d="M216 376L206 381L216 386V376Z" fill="#9DB2BF"/>
  
  <!-- Corners -->
  <circle cx="166" cy="166" r="4" fill="#C06B45" fill-opacity="0.7"/>
  <circle cx="346" cy="166" r="4" fill="#C06B45" fill-opacity="0.7"/>
  <circle cx="166" cy="386" r="4" fill="#C06B45" fill-opacity="0.7"/>
  <circle cx="346" cy="386" r="4" fill="#C06B45" fill-opacity="0.7"/>
</svg>