<?xml version="1.0" encoding="UTF-8"?>
<svg width="512" height="512" viewBox="0 0 512 512" fill="none" xmlns="http://www.w3.org/2000/svg">
  <!-- Background -->
  <circle cx="256" cy="256" r="256" fill="#F9F4EC"/>
  
  <!-- Modern Speech Bubble with rounded square shape -->
  <path d="M140 220C140 176.82 174.82 142 218 142H294C337.18 142 372 176.82 372 220V294C372 337.18 337.18 372 294 372H256V412L226 372H218C174.82 372 140 337.18 140 294V220Z" fill="#9DB2BF" fill-opacity="0.7"/>
  
  <!-- Central Droplet with texture -->
  <g>
    <path d="M256 170C256 170 220 232 220 266C220 300 236 322 256 322C276 322 292 300 292 266C292 232 256 170 256 170Z" fill="#D2846D"/>
    
    <!-- Textured Overlay - provides depth -->
    <path d="M256 190C256 190 235 236 235 266C235 290 244 305 256 305C268 305 277 290 277 266C277 236 256 190 256 190Z" fill="#E88C59"/>
    
    <!-- Subtle Pattern -->
    <path d="M246 230C246 230 236 250 236 266C236 278 240 286 246 286M266 230C266 230 276 250 276 266C276 278 272 286 266 286" stroke="#C06B45" stroke-width="2" stroke-opacity="0.5" stroke-linecap="round"/>
    
    <!-- Dynamic Line Element -->
    <path d="M236 250C236 250 246.5 260 256 260C265.5 260 276 250 276 250" stroke="#C06B45" stroke-width="2" stroke-opacity="0.5" stroke-linecap="round"/>
  </g>
  
  <!-- Reflection Highlights -->
  <circle cx="245" cy="230" r="10" fill="#F9F4EC" fill-opacity="0.8"/>
  <circle cx="260" cy="245" r="5" fill="#F9F4EC" fill-opacity="0.5"/>
  
  <!-- Accent Elements -->
  <circle cx="205" cy="270" r="10" fill="#E88C59" fill-opacity="0.3"/>
  <circle cx="305" cy="270" r="10" fill="#E88C59" fill-opacity="0.3"/>
</svg>