<?xml version="1.0" encoding="UTF-8"?>
<svg width="512" height="512" viewBox="0 0 512 512" fill="none" xmlns="http://www.w3.org/2000/svg">
  <!-- Background -->
  <circle cx="256" cy="256" r="256" fill="#F9F4EC"/>
  
  <!-- Abstract Concept - Broken into overlapping elements -->
  <path d="M355 236C355 173 311 122 256 122C201 122 157 173 157 236C157 299 201 350 256 350V390L296 350C296 350 355 350 355 236Z" fill="#9DB2BF" fill-opacity="0.6"/>
  
  <path d="M335 246C335 193 300 150 256 150C212 150 177 193 177 246C177 299 212 342 256 342V375L286 342C286 342 335 342 335 246Z" fill="#9DB2BF" fill-opacity="0.3"/>
  
  <!-- Layered Droplet - More sophisticated with overlays -->
  <path d="M256 180C256 180 216 230 216 260C216 290 234 312 256 312C278 312 296 290 296 260C296 230 256 180 256 180Z" fill="#D2846D" fill-opacity="0.8"/>
  
  <path d="M256 195C256 195 226 235 226 260C226 285 239 302 256 302C273 302 286 285 286 260C286 235 256 195 256 195Z" fill="#E88C59" fill-opacity="0.8"/>
  
  <path d="M256 210C256 210 236 240 236 260C236 280 245 292 256 292C267 292 276 280 276 260C276 240 256 210 256 210Z" fill="#C06B45" fill-opacity="0.5"/>
  
  <!-- Reflection Spots - Multiple for depth -->
  <circle cx="245" cy="235" r="8" fill="#F9F4EC" fill-opacity="0.8"/>
  <circle cx="265" cy="255" r="4" fill="#F9F4EC" fill-opacity="0.6"/>
  
  <!-- Subtle Line Elements - Abstract accents -->
  <path d="M220 260C220 260 236 280 256 280C276 280 292 260 292 260" stroke="#C06B45" stroke-width="2" stroke-opacity="0.4" stroke-linecap="round"/>
</svg>