<?xml version="1.0" encoding="UTF-8"?>
<svg width="512" height="512" viewBox="0 0 512 512" fill="none" xmlns="http://www.w3.org/2000/svg">
  <!-- Background -->
  <circle cx="256" cy="256" r="256" fill="#F9F4EC"/>
  
  <!-- Main Starburst -->
  <g>
    <!-- Long Rays -->
    <path d="M256 120L276 240H236L256 120Z" fill="#E88C59"/>
    <path d="M256 392L236 272H276L256 392Z" fill="#E88C59"/>
    <path d="M120 256L240 236V276L120 256Z" fill="#E88C59"/>
    <path d="M392 256L272 276V236L392 256Z" fill="#E88C59"/>
    
    <!-- Medium Diagonal Rays -->
    <path d="M176 176L246 226L226 246L176 176Z" fill="#D2846D"/>
    <path d="M336 336L266 286L286 266L336 336Z" fill="#D2846D"/>
    <path d="M176 336L226 266L246 286L176 336Z" fill="#D2846D"/>
    <path d="M336 176L286 246L266 226L336 176Z" fill="#D2846D"/>
    
    <!-- Short Diagonal Rays -->
    <path d="M205 155L240 210L225 220L205 155Z" fill="#C06B45" fill-opacity="0.8"/>
    <path d="M307 357L272 302L287 292L307 357Z" fill="#C06B45" fill-opacity="0.8"/>
    <path d="M155 205L210 240L220 225L155 205Z" fill="#C06B45" fill-opacity="0.8"/>
    <path d="M357 307L302 272L292 287L357 307Z" fill="#C06B45" fill-opacity="0.8"/>
    <path d="M155 307L220 287L210 272L155 307Z" fill="#C06B45" fill-opacity="0.8"/>
    <path d="M357 205L292 225L302 240L357 205Z" fill="#C06B45" fill-opacity="0.8"/>
    <path d="M205 357L225 292L240 302L205 357Z" fill="#C06B45" fill-opacity="0.8"/>
    <path d="M307 155L287 220L272 210L307 155Z" fill="#C06B45" fill-opacity="0.8"/>
  </g>
  
  <!-- Central Circle -->
  <circle cx="256" cy="256" r="40" fill="#9DB2BF"/>
  
  <!-- Small Speech Bubble Icon in Center -->
  <path d="M276 246C276 235.5 267.5 227 257 227H254C243.5 227 235 235.5 235 246C235 256.5 243.5 265 254 265V271L264 265H257C267.5 265 276 256.5 276 246Z" fill="#F9F4EC"/>
  
  <!-- Subtle Glow -->
  <circle cx="256" cy="256" r="55" fill="#E88C59" fill-opacity="0.2"/>
</svg>