<?xml version="1.0" encoding="UTF-8"?>
<svg width="512" height="512" viewBox="0 0 512 512" fill="none" xmlns="http://www.w3.org/2000/svg">
  <!-- Background -->
  <circle cx="256" cy="256" r="256" fill="#F9F4EC"/>
  
  <!-- Main Circle -->
  <circle cx="256" cy="256" r="200" fill="#F7EFE5"/>
  
  <!-- Steam -->
  <path d="M190 150C195 130 210 125 220 130C230 135 225 155 220 165C215 175 210 185 215 195" stroke="#26424C" stroke-width="14" stroke-linecap="round"/>
  <path d="M256 140C261 120 276 115 286 120C296 125 291 145 286 155C281 165 276 175 281 185" stroke="#26424C" stroke-width="14" stroke-linecap="round"/>
  <path d="M320 150C325 130 340 125 350 130C360 135 355 155 350 165C345 175 340 185 345 195" stroke="#26424C" stroke-width="14" stroke-linecap="round"/>
  
  <!-- Saucer -->
  <ellipse cx="256" cy="350" rx="140" ry="20" fill="#26424C"/>
  <ellipse cx="256" cy="350" rx="130" ry="12" fill="#F1F6EB"/>
  
  <!-- Cup -->
  <rect x="146" y="270" width="220" height="80" rx="40" fill="#26424C"/>
  <rect x="156" y="260" width="200" height="80" rx="40" fill="#F1F6EB"/>
  
  <!-- Cup interior -->
  <rect x="166" y="240" width="180" height="80" rx="35" fill="#F1F6EB"/>
  
  <!-- Handle -->
  <path d="M356 270C390 270 390 310 356 310" stroke="#26424C" stroke-width="16" stroke-linecap="round"/>
  
  <!-- Tea Bag -->
  <rect x="230" y="230" width="12" height="60" fill="#26424C"/>
  <rect x="220" y="290" width="32" height="40" rx="4" fill="#96AEFF"/>
  <rect x="220" y="290" width="32" height="40" rx="4" stroke="#26424C" stroke-width="4"/>
  
  <!-- Tea surface shine -->
  <ellipse cx="190" cy="270" rx="8" ry="4" fill="white" fill-opacity="0.4"/>
  <ellipse cx="320" cy="270" rx="6" ry="3" fill="white" fill-opacity="0.4"/>
</svg>