<?xml version="1.0" encoding="UTF-8"?>
<svg width="512" height="512" viewBox="0 0 512 512" fill="none" xmlns="http://www.w3.org/2000/svg">
  <!-- Background Circle -->
  <circle cx="256" cy="256" r="256" fill="#F9F4EC"/>
  
  <!-- Main Droplet -->
  <path d="M256 120C256 120 183 220 183 280C183 340 214 380 256 380C298 380 329 340 329 280C329 220 256 120 256 120Z" fill="#C06B45"/>
  
  <!-- Inner Highlight -->
  <path d="M256 150C256 150 203 230 203 280C203 320 226 350 256 350C286 350 309 320 309 280C309 230 256 150 256 150Z" fill="#D2846D"/>
  
  <!-- Reflection Spot -->
  <circle cx="240" cy="240" r="20" fill="#F9F4EC" fill-opacity="0.7"/>
</svg>