<?xml version="1.0" encoding="UTF-8"?>
<svg width="512" height="512" viewBox="0 0 512 512" fill="none" xmlns="http://www.w3.org/2000/svg">
  <!-- Background -->
  <circle cx="256" cy="256" r="256" fill="#F9F4EC"/>
  
  <!-- Fireplace Outline -->
  <rect x="156" y="156" width="200" height="220" rx="8" fill="#9DB2BF"/>
  
  <!-- Inner Fireplace -->
  <rect x="176" y="176" width="160" height="180" rx="4" fill="#F7EFE5"/>
  
  <!-- Flames -->
  <path d="M240 230C240 210 230 200 220 195C230 205 235 220 230 235C225 250 215 260 205 265C215 270 225 280 225 290C225 300 215 310 200 315C215 315 230 310 240 300C250 290 255 275 250 260C245 245 250 235 255 230C255 210 240 205 240 230Z" fill="#E88C59"/>
  <path d="M270 240C270 225 280 215 290 210C280 220 275 230 280 245C285 260 295 270 305 275C295 280 285 290 285 300C285 310 295 320 310 325C295 325 280 320 270 310C260 300 255 285 260 270C265 255 260 245 255 240C255 220 270 215 270 240Z" fill="#D2846D"/>
  
  <!-- Small Cup on a Saucer -->
  <circle cx="320" cy="310" r="20" fill="#E88C59"/>
  <circle cx="320" cy="310" r="15" fill="#F7EFE5"/>
  <rect x="310" y="300" width="20" height="15" rx="3" fill="#F7EFE5"/>
  <circle cx="320" cy="320" r="30" fill="#9DB2BF"/>
  <circle cx="320" cy="320" r="25" fill="#F7EFE5"/>
  
  <!-- Journal -->
  <rect x="180" y="280" width="90" height="60" rx="4" fill="#C06B45"/>
  <rect x="188" y="288" width="74" height="44" rx="2" fill="#F7EFE5"/>
  
  <!-- Journal Lines -->
  <rect x="195" y="300" width="60" height="2" rx="1" fill="#9DB2BF" fill-opacity="0.6"/>
  <rect x="195" y="310" width="60" height="2" rx="1" fill="#9DB2BF" fill-opacity="0.6"/>
  <rect x="195" y="320" width="40" height="2" rx="1" fill="#9DB2BF" fill-opacity="0.6"/>
</svg>