<?xml version="1.0" encoding="UTF-8"?>
<svg width="512" height="512" viewBox="0 0 512 512" fill="none" xmlns="http://www.w3.org/2000/svg">
  <!-- Background -->
  <circle cx="256" cy="256" r="256" fill="#F9F4EC"/>
  
  <!-- Main Circle -->
  <circle cx="256" cy="256" r="130" fill="#F7EFE5"/>
  <circle cx="256" cy="256" r="120" fill="#9DB2BF" fill-opacity="0.1"/>
  
  <!-- Fireplace -->
  <rect x="196" y="196" width="120" height="140" rx="6" fill="#9DB2BF"/>
  <rect x="206" y="206" width="100" height="120" rx="4" fill="#F7EFE5"/>
  
  <!-- Flames -->
  <path d="M235 236C235 226 230 221 225 219C230 224 233 231 230 238C227 246 223 250 218 253C223 255 227 260 227 265C227 270 223 275 215 277C223 277 230 275 235 270C240 265 242 257 240 250C237 243 239 238 242 236C242 226 235 223 235 236Z" fill="#E88C59"/>
  <path d="M252 240C252 232 258 227 263 225C258 230 255 235 258 242C260 250 265 255 270 257C265 259 260 264 260 269C260 274 265 279 272 282C265 282 258 279 252 274C247 270 245 262 247 255C250 247 247 242 245 240C245 230 252 227 252 240Z" fill="#D2846D"/>
  
  <!-- Journal -->
  <rect x="226" y="285" width="60" height="40" rx="3" fill="#C06B45"/>
  <rect x="231" y="290" width="50" height="30" rx="2" fill="#F7EFE5"/>
  
  <!-- Journal Lines -->
  <rect x="236" y="298" width="40" height="2" rx="1" fill="#9DB2BF" fill-opacity="0.6"/>
  <rect x="236" y="305" width="40" height="2" rx="1" fill="#9DB2BF" fill-opacity="0.6"/>
  <rect x="236" y="312" width="30" height="2" rx="1" fill="#9DB2BF" fill-opacity="0.6"/>
  
  <!-- Cup -->
  <circle cx="312" cy="245" r="15" fill="#E88C59"/>
  <circle cx="312" cy="245" r="10" fill="#F7EFE5"/>
  <rect x="305" y="239" width="14" height="12" rx="2" fill="#F7EFE5"/>
  
  <!-- Warm Glow Ring -->
  <circle cx="256" cy="256" r="110" stroke="#E88C59" stroke-opacity="0.4" stroke-width="10"/>
</svg>