<?xml version="1.0" encoding="UTF-8"?>
<svg width="512" height="512" viewBox="0 0 512 512" fill="none" xmlns="http://www.w3.org/2000/svg">
  <!-- Background -->
  <circle cx="256" cy="256" r="256" fill="#F9F4EC"/>
  
  <!-- Refined Speech Bubble - More rounded -->
  <path d="M362 256C362 187 317 132 256 132C195 132 150 187 150 256C150 325 195 380 256 380V425L308 380C317 380 325 377 335 372C352 362 362 338 362 256Z" fill="#9DB2BF"/>
  
  <!-- Central Droplet -->
  <path d="M256 170C256 170 215 230 215 265C215 300 233 325 256 325C279 325 297 300 297 265C297 230 256 170 256 170Z" fill="#D2846D"/>
  
  <!-- Inner Highlight -->
  <path d="M256 200C256 200 230 240 230 265C230 290 241 305 256 305C271 305 282 290 282 265C282 240 256 200 256 200Z" fill="#E88C59"/>
  
  <!-- Reflection Spot -->
  <circle cx="245" cy="240" r="12" fill="#F9F4EC" fill-opacity="0.7"/>
  
  <!-- Small Droplet Accent -->
  <path d="M205 230C205 230 195 250 195 260C195 270 199 275 205 275C211 275 215 270 215 260C215 250 205 230 205 230Z" fill="#E88C59" fill-opacity="0.7"/>
</svg>