<?xml version="1.0" encoding="UTF-8"?>
<svg width="512" height="512" viewBox="0 0 512 512" fill="none" xmlns="http://www.w3.org/2000/svg">
  <!-- Background -->
  <circle cx="256" cy="256" r="256" fill="#F9F4EC"/>
  
  <!-- Main Circle -->
  <circle cx="256" cy="256" r="150" fill="#F7EFE5"/>
  
  <!-- Fireplace Outline -->
  <rect x="156" y="156" width="200" height="200" rx="10" fill="#9DB2BF"/>
  
  <!-- Fireplace Inner -->
  <rect x="176" y="176" width="160" height="160" rx="5" fill="#E88C59" fill-opacity="0.2"/>
  
  <!-- Logs -->
  <rect x="196" y="296" width="120" height="20" rx="10" fill="#C06B45"/>
  <rect x="196" y="276" width="120" height="20" rx="10" fill="#C06B45" fill-opacity="0.8"/>
  
  <!-- Flames -->
  <path d="M226 200C226 180 216 170 206 165C216 175 221 190 216 205C211 220 201 230 191 235C201 240 211 250 211 260C211 270 201 280 186 285C201 285 216 280 226 270C236 260 241 245 236 230C231 215 236 205 241 200C241 180 226 175 226 200Z" fill="#E88C59"/>
  <path d="M256 220C256 205 266 195 276 190C266 200 261 210 266 225C271 240 281 250 291 255C281 260 271 270 271 280C271 290 281 300 296 305C281 305 266 300 256 290C246 280 241 265 246 250C251 235 246 225 241 220C241 200 256 195 256 220Z" fill="#E88C59"/>
  <path d="M286 200C286 180 276 170 266 165C276 175 281 190 276 205C271 220 261 230 251 235C261 240 271 250 271 260C271 270 261 280 246 285C261 285 276 280 286 270C296 260 301 245 296 230C291 215 296 205 301 200C301 180 286 175 286 200Z" fill="#E88C59"/>
  
  <!-- Small Fire Particles -->
  <circle cx="226" cy="210" r="5" fill="#F7EFE5" fill-opacity="0.6"/>
  <circle cx="256" cy="230" r="6" fill="#F7EFE5" fill-opacity="0.6"/>
  <circle cx="286" cy="210" r="4" fill="#F7EFE5" fill-opacity="0.6"/>
  <circle cx="241" cy="190" r="3" fill="#F7EFE5" fill-opacity="0.6"/>
  <circle cx="266" cy="200" r="4" fill="#F7EFE5" fill-opacity="0.6"/>
  
  <!-- Mantel -->
  <rect x="126" y="156" width="260" height="20" rx="5" fill="#9DB2BF"/>
  
  <!-- Fireplace Tools -->
  <rect x="366" y="186" width="10" height="100" rx="5" fill="#9DB2BF" fill-opacity="0.7"/>
  <rect x="136" y="186" width="10" height="100" rx="5" fill="#9DB2BF" fill-opacity="0.7"/>
  
  <!-- Small Decorations on Mantel -->
  <rect x="156" y="136" width="20" height="20" rx="2" fill="#E88C59" fill-opacity="0.5"/>
  <circle cx="196" cy="146" r="10" fill="#C06B45" fill-opacity="0.5"/>
  <rect x="216" y="136" width="80" height="20" rx="2" fill="#9DB2BF" fill-opacity="0.3"/>
  <circle cx="316" cy="146" r="10" fill="#C06B45" fill-opacity="0.5"/>
  <rect x="336" y="136" width="20" height="20" rx="2" fill="#E88C59" fill-opacity="0.5"/>
</svg>