<?xml version="1.0" encoding="UTF-8"?>
<svg width="512" height="512" viewBox="0 0 512 512" fill="none" xmlns="http://www.w3.org/2000/svg">
  <!-- Background -->
  <rect width="512" height="512" rx="128" fill="#F9F4EC"/>
  
  <!-- Circle Container -->
  <circle cx="256" cy="256" r="150" fill="#9DB2BF"/>
  
  <!-- Multiple Droplets -->
  <path d="M215 150C215 150 190 205 190 230C190 255 201 270 215 270C229 270 240 255 240 230C240 205 215 150 215 150Z" fill="#D2846D"/>
  
  <path d="M295 180C295 180 275 225 275 245C275 265 284 277 295 277C306 277 315 265 315 245C315 225 295 180 295 180Z" fill="#E88C59"/>
  
  <path d="M256 220C256 220 226 290 226 330C226 370 239 390 256 390C273 390 286 370 286 330C286 290 256 220 256 220Z" fill="#C06B45"/>
  
  <!-- Reflection Spot -->
  <circle cx="248" cy="280" r="15" fill="#F9F4EC" fill-opacity="0.7"/>
</svg>