<?xml version="1.0" encoding="UTF-8"?>
<svg width="512" height="512" viewBox="0 0 512 512" fill="none" xmlns="http://www.w3.org/2000/svg">
  <!-- Background -->
  <rect width="512" height="512" rx="128" fill="#F9F4EC"/>
  
  <!-- Heart Shape with Droplet -->
  <path d="M350 190C350 166.5 331.5 148 308 148C284.5 148 266 166.5 266 190H266C266 166.5 247.5 148 224 148C200.5 148 182 166.5 182 190C182 223 224 270 266 290V190H266C266 223 308 270 350 290V190Z" fill="#E88C59"/>
  
  <!-- Droplet in Heart -->
  <path d="M266 240C266 240 245 270 245 290C245 310 254 325 266 325C278 325 287 310 287 290C287 270 266 240 266 240Z" fill="#C06B45"/>
  
  <!-- Reflection Spot -->
  <circle cx="260" cy="270" r="8" fill="#F9F4EC" fill-opacity="0.7"/>
</svg>