<?xml version="1.0" encoding="UTF-8"?>
<svg width="512" height="512" viewBox="0 0 512 512" fill="none" xmlns="http://www.w3.org/2000/svg">
  <!-- Background -->
  <circle cx="256" cy="256" r="256" fill="#F9F4EC"/>
  
  <!-- Cozy Window Frame -->
  <rect x="146" y="146" width="220" height="220" rx="20" fill="#9DB2BF"/>
  <rect x="166" y="166" width="180" height="180" rx="10" fill="#F7EFE5"/>
  
  <!-- Window Panes -->
  <rect x="166" y="250" width="180" height="6" fill="#9DB2BF"/>
  <rect x="250" y="166" width="6" height="180" fill="#9DB2BF"/>
  
  <!-- Fireplace Glow in Bottom-Right Pane -->
  <rect x="256" y="256" width="90" height="90" rx="5" fill="#E88C59" fill-opacity="0.2"/>
  
  <!-- Simple Flames -->
  <path d="M290 276C290 266 295 261 300 260C295 265 293 271 295 277C298 283 302 287 305 290C300 291 297 295 297 300C297 305 300 310 308 312C300 312 293 310 290 305C286 301 285 293 288 288C290 283 288 278 285 276C287 266 292 266 290 276Z" fill="#E88C59"/>
  <path d="M310 286C310 276 305 271 300 270C305 275 307 281 305 287C302 293 298 297 295 300C300 301 303 305 303 310C303 315 300 320 292 322C300 322 307 320 310 315C314 311 315 303 312 298C310 293 312 288 315 286C313 276 308 276 310 286Z" fill="#D2846D"/>
  
  <!-- Journal in Bottom-Left Pane -->
  <rect x="186" y="276" width="50" height="60" rx="4" fill="#C06B45"/>
  <rect x="191" y="281" width="40" height="50" rx="2" fill="#F7EFE5"/>
  
  <!-- Journal Lines -->
  <rect x="196" y="291" width="30" height="2" rx="1" fill="#9DB2BF" fill-opacity="0.5"/>
  <rect x="196" y="301" width="30" height="2" rx="1" fill="#9DB2BF" fill-opacity="0.5"/>
  <rect x="196" y="311" width="30" height="2" rx="1" fill="#9DB2BF" fill-opacity="0.5"/>
  <rect x="196" y="321" width="20" height="2" rx="1" fill="#9DB2BF" fill-opacity="0.5"/>
  
  <!-- Cup in Top-Right Pane -->
  <circle cx="300" cy="215" r="18" fill="#9DB2BF" fill-opacity="0.3"/>
  <path d="M290 207H310V220C310 225.523 305.523 230 300 230V230C294.477 230 290 225.523 290 220V207Z" fill="#F7EFE5"/>
  <path d="M287 207H313V207C313 204.791 311.209 203 309 203H291C288.791 203 287 204.791 287 207V207Z" fill="#E88C59"/>
  
  <!-- Pen in Top-Left Pane -->
  <rect x="210" y="206" width="30" height="6" rx="3" fill="#9DB2BF"/>
  <path d="M210 206L205 210L210 214V206Z" fill="#9DB2BF"/>
</svg>