<?xml version="1.0" encoding="UTF-8"?>
<svg width="512" height="512" viewBox="0 0 512 512" fill="none" xmlns="http://www.w3.org/2000/svg">
  <!-- Background -->
  <circle cx="256" cy="256" r="256" fill="#F9F4EC"/>
  
  <!-- Speech Bubble with Droplet -->
  <path d="M362 256C362 193.5 311.5 143 249 143H230C167.5 143 117 193.5 117 256C117 318.5 167.5 369 230 369V405L282 369H249C311.5 369 362 318.5 362 256Z" fill="#9DB2BF"/>
  
  <!-- Droplet -->
  <path d="M256 180C256 180 215 240 215 275C215 310 233 335 256 335C279 335 297 310 297 275C297 240 256 180 256 180Z" fill="#D2846D"/>
  
  <!-- Inner Highlight -->
  <path d="M256 210C256 210 230 250 230 275C230 300 241 315 256 315C271 315 282 300 282 275C282 250 256 210 256 210Z" fill="#E88C59"/>
  
  <!-- Reflection Spot -->
  <circle cx="245" cy="250" r="12" fill="#F9F4EC" fill-opacity="0.7"/>
</svg>