<?xml version="1.0" encoding="UTF-8"?>
<svg width="512" height="512" viewBox="0 0 512 512" fill="none" xmlns="http://www.w3.org/2000/svg">
  <!-- App Icon Background - Purple gradient -->
  <rect width="512" height="512" rx="128" fill="url(#paint0_linear)"/>
  
  <!-- Drop icon - Bold, simple droplet shape -->
  <path d="M256 128C256 128 160 240 160 320C160 391.8 202.4 448 256 448C309.6 448 352 391.8 352 320C352 240 256 128 256 128Z" fill="white"/>
  
  <!-- Small reflection highlight -->
  <path d="M256 408C282.5 408 304 384.5 304 356C304 320 256 264 256 264C256 264 208 320 208 356C208 384.5 229.5 408 256 408Z" fill="#AA55FF" fill-opacity="0.3"/>
  
  <!-- Gradient definition -->
  <defs>
    <linearGradient id="paint0_linear" x1="0" y1="0" x2="512" y2="512" gradientUnits="userSpaceOnUse">
      <stop offset="0" stop-color="#9966CC"/>
      <stop offset="1" stop-color="#6633AA"/>
    </linearGradient>
  </defs>
</svg>