<svg width="512" height="512" viewBox="0 0 512 512" fill="none" xmlns="http://www.w3.org/2000/svg">
  <!-- Background gradient using sunset theme colors -->
  <rect width="512" height="512" rx="128" fill="url(#sunset_gradient)"/>
  
  <!-- Droplet shape -->
  <path d="M256 96C256 96 160 224 160 320C160 372.16 201.84 416 256 416C310.16 416 352 372.16 352 320C352 224 256 96 256 96Z" fill="white"/>
  
  <!-- Highlight/reflection -->
  <path d="M226 136C226 136 182 224 182 294C182 318.8 192.44 336 226 336C259.56 336 270 318.8 270 294C270 224 226 136 226 136Z" fill="url(#reflection_gradient)" fill-opacity="0.3"/>
  
  <!-- Gradients definitions -->
  <defs>
    <linearGradient id="sunset_gradient" x1="0" y1="0" x2="512" y2="512" gradientUnits="userSpaceOnUse">
      <stop offset="0" stop-color="#E67E22"/> <!-- Primary Sunset -->
      <stop offset="1" stop-color="#D35400"/> <!-- Secondary Sunset -->
    </linearGradient>
    <linearGradient id="reflection_gradient" x1="182" y1="136" x2="270" y2="336" gradientUnits="userSpaceOnUse">
      <stop offset="0" stop-color="white"/>
      <stop offset="1" stop-color="white" stop-opacity="0"/>
    </linearGradient>
  </defs>
</svg>